Format                           : Matroska
File size                        : 2.18 GiB
Duration                         : 1h 41mn
Overall bit rate                 : 3 086 Kbps

Video
ID                               : 1
Format                           : AVC
Format/Info                      : Advanced Video Codec
Format profile                   : High@L4.1
Format settings, CABAC           : Yes
Format settings, ReFrames        : 6 frames
Muxing mode                      : Container profile=Unknown@4.1
Codec ID                         : V_MPEG4/ISO/AVC
Duration                         : 1h 41mn
Bit rate                         : 2 640 Kbps @ 2Pass
Nominal bit rate                 : 2 700 Kbps
Width                            : 1 280 pixels
Height                           : 720 pixels
Display aspect ratio             : 16:9
Frame rate                       : 25.000 fps
Resolution                       : 24 bits
Colorimetry                      : 4:2:0
Scan type                        : Progressive
Bits/(Pixel*Frame)               : 0.115
Stream size                      : 1.87 GiB (86%)
Writing library                  : x264 

Audio
ID                               : 2
Format                           : AC-3
Format/Info                      : Audio Coding 3
Format profile                   : Dolby Digital
Codec ID                         : A_AC3
Duration                         : 1h 41mn
Bit rate mode                    : Constant
Bit rate                         : 384 Kbps
Channel(s)                       : 2 channels
Channel positions                : L R
Sampling rate                    : 48.0 KHz
Stream size                      : 278 MiB (12%)
Language                         : English

Text
ID                               : 3
Format                           : UTF-8
Codec ID                         : S_TEXT/UTF8
Codec ID/Info                    : UTF-8 Plain Text
Language                         : English

Source...............: Masters.of.the.Universe.1987.720p.HDTV.x264-MCR